<svg width="26" height="26" viewBox="0 0 26 26" fill="none" xmlns="http://www.w3.org/2000/svg">
<path d="M8.39554 2.70837C8.39554 2.49289 8.30993 2.28622 8.15756 2.13385C8.00519 1.98148 7.79852 1.89587 7.58304 1.89587C7.36755 1.89587 7.16089 1.98148 7.00851 2.13385C6.85614 2.28622 6.77054 2.49289 6.77054 2.70837V4.42004C5.21054 4.54462 4.18787 4.85012 3.43604 5.60304C2.68312 6.35487 2.37762 7.37862 2.25195 8.93754H23.7475C23.6218 7.37754 23.3163 6.35487 22.5634 5.60304C21.8115 4.85012 20.7878 4.54462 19.2289 4.41896V2.70837C19.2289 2.49289 19.1433 2.28622 18.9909 2.13385C18.8385 1.98148 18.6319 1.89587 18.4164 1.89587C18.2009 1.89587 17.9942 1.98148 17.8418 2.13385C17.6895 2.28622 17.6039 2.49289 17.6039 2.70837V4.34746C16.8835 4.33337 16.0753 4.33337 15.1664 4.33337H10.833C9.92412 4.33337 9.11595 4.33337 8.39554 4.34746V2.70837Z" fill="#D5D5D5"/>
<path fill-rule="evenodd" clip-rule="evenodd" d="M2.16699 13C2.16699 12.0911 2.16699 11.2829 2.18108 10.5625H23.8196C23.8337 11.2829 23.8337 12.0911 23.8337 13V15.1667C23.8337 19.2519 23.8337 21.2951 22.564 22.5637C21.2954 23.8333 19.2522 23.8333 15.167 23.8333H10.8337C6.74841 23.8333 4.70524 23.8333 3.43666 22.5637C2.16699 21.2951 2.16699 19.2519 2.16699 15.1667V13ZM18.417 15.1667C18.7043 15.1667 18.9799 15.0525 19.183 14.8494C19.3862 14.6462 19.5003 14.3707 19.5003 14.0833C19.5003 13.796 19.3862 13.5205 19.183 13.3173C18.9799 13.1141 18.7043 13 18.417 13C18.1297 13 17.8541 13.1141 17.651 13.3173C17.4478 13.5205 17.3337 13.796 17.3337 14.0833C17.3337 14.3707 17.4478 14.6462 17.651 14.8494C17.8541 15.0525 18.1297 15.1667 18.417 15.1667ZM18.417 19.5C18.7043 19.5 18.9799 19.3859 19.183 19.1827C19.3862 18.9795 19.5003 18.704 19.5003 18.4167C19.5003 18.1293 19.3862 17.8538 19.183 17.6506C18.9799 17.4475 18.7043 17.3333 18.417 17.3333C18.1297 17.3333 17.8541 17.4475 17.651 17.6506C17.4478 17.8538 17.3337 18.1293 17.3337 18.4167C17.3337 18.704 17.4478 18.9795 17.651 19.1827C17.8541 19.3859 18.1297 19.5 18.417 19.5ZM14.0837 14.0833C14.0837 14.3707 13.9695 14.6462 13.7664 14.8494C13.5632 15.0525 13.2876 15.1667 13.0003 15.1667C12.713 15.1667 12.4375 15.0525 12.2343 14.8494C12.0311 14.6462 11.917 14.3707 11.917 14.0833C11.917 13.796 12.0311 13.5205 12.2343 13.3173C12.4375 13.1141 12.713 13 13.0003 13C13.2876 13 13.5632 13.1141 13.7664 13.3173C13.9695 13.5205 14.0837 13.796 14.0837 14.0833ZM14.0837 18.4167C14.0837 18.704 13.9695 18.9795 13.7664 19.1827C13.5632 19.3859 13.2876 19.5 13.0003 19.5C12.713 19.5 12.4375 19.3859 12.2343 19.1827C12.0311 18.9795 11.917 18.704 11.917 18.4167C11.917 18.1293 12.0311 17.8538 12.2343 17.6506C12.4375 17.4475 12.713 17.3333 13.0003 17.3333C13.2876 17.3333 13.5632 17.4475 13.7664 17.6506C13.9695 17.8538 14.0837 18.1293 14.0837 18.4167ZM7.58366 15.1667C7.87098 15.1667 8.14653 15.0525 8.34969 14.8494C8.55286 14.6462 8.66699 14.3707 8.66699 14.0833C8.66699 13.796 8.55286 13.5205 8.34969 13.3173C8.14653 13.1141 7.87098 13 7.58366 13C7.29634 13 7.02079 13.1141 6.81763 13.3173C6.61446 13.5205 6.50033 13.796 6.50033 14.0833C6.50033 14.3707 6.61446 14.6462 6.81763 14.8494C7.02079 15.0525 7.29634 15.1667 7.58366 15.1667ZM7.58366 19.5C7.87098 19.5 8.14653 19.3859 8.34969 19.1827C8.55286 18.9795 8.66699 18.704 8.66699 18.4167C8.66699 18.1293 8.55286 17.8538 8.34969 17.6506C8.14653 17.4475 7.87098 17.3333 7.58366 17.3333C7.29634 17.3333 7.02079 17.4475 6.81763 17.6506C6.61446 17.8538 6.50033 18.1293 6.50033 18.4167C6.50033 18.704 6.61446 18.9795 6.81763 19.1827C7.02079 19.3859 7.29634 19.5 7.58366 19.5Z" fill="#D5D5D5"/>
</svg>
