<svg width="17" height="22" viewBox="0 0 17 22" fill="none" xmlns="http://www.w3.org/2000/svg">
<path d="M1.39183 18.6456C0.643806 19.2576 0.533552 20.3601 1.14558 21.1082C1.7576 21.8562 2.86014 21.9664 3.60817 21.3544L1.39183 18.6456ZM13.5 11L14.6082 12.3544L16.2636 11L14.6082 9.64557L13.5 11ZM3.60817 0.645575C2.86014 0.0335515 1.7576 0.143806 1.14557 0.891834C0.533551 1.63986 0.643806 2.7424 1.39183 3.35443L3.60817 0.645575ZM3.60817 21.3544L14.6082 12.3544L12.3918 9.64557L1.39183 18.6456L3.60817 21.3544ZM14.6082 9.64557L3.60817 0.645575L1.39183 3.35443L12.3918 12.3544L14.6082 9.64557Z" fill="#494559"/>
</svg>
