<svg width="20" height="20" viewBox="0 0 20 20" fill="none" xmlns="http://www.w3.org/2000/svg">
<path d="M20 9.98434C19.9982 9.30597 19.7892 8.64435 19.4009 8.08808C19.0127 7.53182 18.4637 7.10748 17.8275 6.87191L17.7959 6.79608C16.9692 4.77398 15.3866 3.15398 13.3843 2.28034L13.1102 2.16035C12.8741 1.52612 12.4498 0.979255 11.894 0.593106C11.3383 0.206957 10.6778 0 10.0011 0C9.32434 0 8.66381 0.206957 8.10807 0.593106C7.55234 0.979255 7.128 1.52612 6.89196 2.16035L6.54364 2.31701C4.55914 3.21836 2.99722 4.84831 2.18124 6.86941C1.54404 7.10156 0.993323 7.52348 0.603315 8.07829C0.213306 8.63309 0.00275107 9.29412 2.67739e-05 9.97229C-0.00269752 10.6505 0.20254 11.3132 0.588079 11.8711C0.973617 12.429 1.52092 12.8553 2.15624 13.0926L2.2629 13.3426C3.09901 15.2833 4.63455 16.8385 6.56447 17.6992L6.89196 17.8458C7.12866 18.4791 7.55317 19.025 8.10866 19.4104C8.66416 19.7959 9.32412 20.0024 10.0002 20.0024C10.6763 20.0024 11.3363 19.7959 11.8918 19.4104C12.4473 19.025 12.8718 18.4791 13.1085 17.8458L13.4143 17.71C15.4331 16.8073 17.0202 15.1529 17.8384 13.0984C18.4724 12.8604 19.0188 12.4349 19.405 11.8786C19.7911 11.3223 19.9987 10.6615 20 9.98434ZM13.2443 15.9267C13.0784 15.1901 12.6668 14.5318 12.0772 14.0602C11.4875 13.5885 10.7549 13.3316 9.99981 13.3316C9.24473 13.3316 8.51212 13.5885 7.92246 14.0602C7.3328 14.5318 6.92118 15.1901 6.7553 15.9267C5.61748 15.3058 4.68271 14.3702 4.06286 13.2318C4.79719 13.0658 5.45349 12.6557 5.92447 12.0684C6.39544 11.481 6.65321 10.7513 6.65563 9.99847C6.65805 9.24564 6.40497 8.51425 5.93778 7.92391C5.4706 7.33358 4.81694 6.91921 4.08369 6.74858C4.70582 5.62622 5.63178 4.702 6.7553 4.08197C6.92188 4.81778 7.33368 5.4751 7.9231 5.946C8.51253 6.4169 9.24454 6.67341 9.99898 6.67341C10.7534 6.67341 11.4854 6.4169 12.0748 5.946C12.6643 5.4751 13.0761 4.81778 13.2427 4.08197C14.3654 4.70131 15.2918 5.62315 15.9168 6.74274C15.1813 6.91073 14.5247 7.3238 14.055 7.91413C13.5852 8.50447 13.3301 9.23698 13.3316 9.99141C13.333 10.7459 13.5909 11.4774 14.063 12.0659C14.535 12.6544 15.1931 13.0649 15.9293 13.2301C15.3074 14.3649 14.3764 15.2999 13.2443 15.9267Z" fill="#494559"/>
</svg>
